<?xml version="1.0" encoding="utf-8"?>
<!-- Generator: Adobe Illustrator 23.0.6, SVG Export Plug-In . SVG Version: 6.00 Build 0)  -->
<svg version="1.1" id="Layer_1" xmlns="http://www.w3.org/2000/svg" xmlns:xlink="http://www.w3.org/1999/xlink" x="0px" y="0px"
	 viewBox="0 0 64 64" style="enable-background:new 0 0 64 64;" xml:space="preserve">
<style type="text/css">
	.st0{fill:#EC4C98;}
	.st1{fill:none;}
	.st2{fill:#CE307B;}
	.st3{fill:#A88967;}
	.st4{fill:#E88793;}
	.st5{fill:#F7C0CD;}
	.st6{fill:#FFD067;}
	.st7{fill:#EC635F;}
	.st8{fill:#CC4948;}
	.st9{fill:#EA3B4F;}
	.st10{fill:#FDE373;}
	.st11{fill:#9ECAE0;}
	.st12{fill:#010101;}
	.st13{fill:#F8B2B3;}
	.st14{fill:#CCCCCC;}
	.st15{fill:#683D17;}
	.st16{fill:#971D21;}
	.st17{fill:#D32C39;}
	.st18{fill:#EB9E2D;}
	.st19{fill:#F9BF73;}
	.st20{fill:#D46360;}
	.st21{fill:#EAEEF1;}
	.st22{fill:#ED6F6E;}
	.st23{fill:#FAC2C3;}
	.st24{fill:#FDF5A3;}
	.st25{fill:#F49DC3;}
	.st26{fill:#D85DA0;}
	.st27{fill:#F7A4A6;}
	.st28{fill:#FFE09C;}
	.st29{fill:#D25252;}
	.st30{fill:none;stroke:#010101;stroke-width:2;stroke-miterlimit:10;}
	.st31{fill:#DFE568;}
	.st32{fill:#D0202B;}
	.st33{fill:#66A9B2;}
	.st34{fill:#8BCEDB;}
	.st35{fill:#ACDFE6;}
	.st36{fill:#F58D95;}
	.st37{fill:#F26C76;}
	.st38{fill:#F7A6AE;}
	.st39{fill:#FDE588;}
	.st40{fill:#853223;}
	.st41{fill:#C6877E;}
	.st42{fill:#C32026;}
	.st43{fill:#969595;}
	.st44{fill:#F9B4AB;}
	.st45{fill:#FBCFC8;}
	.st46{fill:#DC326F;}
	.st47{fill:#F7FAFC;}
	.st48{fill:#F6EFE8;}
	.st49{fill:#7DC8C7;}
	.st50{fill:#E27F86;}
	.st51{fill:#FFFFFF;}
	.st52{fill:#BEDDF4;}
	.st53{fill:#FBB03B;}
	.st54{fill:#F47D4E;}
	.st55{fill:#F176A8;}
	.st56{fill:#ED227C;}
	.st57{fill:#ED99C1;}
	.st58{fill:#FDF053;}
	.st59{fill:#F9B9A2;}
	.st60{fill:#F09B78;}
	.st61{fill:none;stroke:#000000;stroke-width:2;stroke-miterlimit:10;}
	.st62{fill:none;stroke:#010101;stroke-width:2.5936;stroke-miterlimit:10;}
	.st63{fill:none;stroke:#010101;stroke-width:2.6898;stroke-miterlimit:10;}
	.st64{fill:none;stroke:#010101;stroke-width:1.8138;stroke-miterlimit:10;}
	.st65{fill:none;stroke:#010101;stroke-width:1.9508;stroke-miterlimit:10;}
	.st66{fill:none;stroke:#010101;stroke-width:1.9031;stroke-miterlimit:10;}
	.st67{fill:none;stroke:#010101;stroke-width:1.5453;stroke-miterlimit:10;}
	.st68{fill:none;stroke:#010101;stroke-width:1.7277;stroke-miterlimit:10;}
	.st69{opacity:0.3;}
	.st70{opacity:0.3;fill:#FFFFFF;}
</style>
<g id="Vector">
	<g id="parfume">
		<circle class="st44" cx="30.64" cy="9.74" r="7.57"/>
		<path class="st45" d="M39.59,19.47c0,0.59-0.24,1.14-0.63,1.53s-0.94,0.63-1.53,0.63H24.05c-1.19,0-2.16-0.97-2.16-2.16
			c0-0.59,0.24-1.14,0.63-1.53c0.39-0.39,0.94-0.63,1.53-0.63h13.38C38.62,17.31,39.59,18.28,39.59,19.47z"/>
		<rect x="24.96" y="21.64" class="st45" width="12.02" height="4.76"/>
		<path class="st45" d="M57.27,39.51H5.48c0-7.21,5.9-13.11,13.11-13.11h25.57C51.37,26.4,57.27,32.3,57.27,39.51z"/>
		<path class="st46" d="M57.27,39.51v7.96c0,7.21-5.9,13.11-13.11,13.11H18.59c-7.21,0-13.11-5.9-13.11-13.11v-7.96H57.27z"/>
	</g>
</g>
<g id="Line">
	<g id="parfume_1_">
		<circle class="st30" cx="30.64" cy="9.74" r="7.57"/>
		<path class="st30" d="M39.59,19.47c0,0.59-0.24,1.14-0.63,1.53s-0.94,0.63-1.53,0.63H24.05c-1.19,0-2.16-0.97-2.16-2.16
			c0-0.59,0.24-1.14,0.63-1.53c0.39-0.39,0.94-0.63,1.53-0.63h13.38C38.62,17.31,39.59,18.28,39.59,19.47z"/>
		<rect x="24.96" y="21.64" class="st30" width="12.02" height="4.76"/>
		<line class="st30" x1="36.98" y1="26.79" x2="36.98" y2="26.4"/>
		<path class="st30" d="M57.27,39.51H5.48c0-7.21,5.9-13.11,13.11-13.11h25.57C51.37,26.4,57.27,32.3,57.27,39.51z"/>
		<path class="st30" d="M57.27,39.51v7.96c0,7.21-5.9,13.11-13.11,13.11H18.59c-7.21,0-13.11-5.9-13.11-13.11v-7.96H57.27z"/>
		<line class="st30" x1="24.96" y1="26.79" x2="24.96" y2="26.4"/>
	</g>
</g>
<g id="shadow">
	<path class="st69" d="M38.22,9.74c0-4.18-2.43-7.57-5.42-7.57c-1.12,0-2.16,0.47-3.02,1.29c1.45,1.36,2.4,3.67,2.4,6.29
		s-0.95,4.93-2.4,6.29c0.86,0.81,1.9,1.29,3.02,1.29C35.79,17.31,38.22,13.92,38.22,9.74z"/>
	<path class="st69" d="M46.01,26.4c-3.01,0-6.02,0-9.02,0c0.15-1.59,0.3-3.18,0.45-4.76l0,0c1.42-0.27,1.93-0.77,2.11-1.21
		c0.21-0.5,0.01-0.94,0.24-1.92c0.12-0.52,0.3-0.93,0.44-1.2h-5.83h-1.43c1.02,0,1.86,0.97,1.86,2.16c0,0.59-0.21,1.14-0.54,1.53
		c-0.34,0.39-0.81,0.63-1.31,0.63h-0.38v4.76c1.47,0,2.93,0,4.4,0c0.72-0.04,5.87-0.25,9.73,3.85c3.58,3.81,3.36,8.48,3.31,9.26
		v7.96c0,7.21-5.07,13.11-11.27,13.11h7.26c6.2,0,11.27-5.9,11.27-13.11v-7.96C57.27,32.3,52.2,26.4,46.01,26.4z"/>
</g>
<g id="Highligth">
	<g id="dress_3_">
	</g>
	<g id="heels_3_">
	</g>
	<g id="sneakers_3_">
	</g>
	<g id="brush_3_">
	</g>
	<g id="lipstick_3_">
	</g>
	<g id="powder_3_">
	</g>
	<g id="eye_shadow_3_">
	</g>
	<g id="hat_3_">
	</g>
	<g id="boots_3_">
	</g>
	<g id="earring_1_">
	</g>
	<g id="hair_straightener_3_">
	</g>
	<g id="hair_dyer">
	</g>
	<g id="cream_3_">
	</g>
	<g id="long_shirt_3_">
	</g>
	<g id="hot_pents_1_">
	</g>
	<g id="dress_party_3_">
	</g>
	<g id="kutex_3_">
	</g>
	<g id="mirror_3_">
	</g>
	<g id="parfume_3_">
	</g>
	<path class="st70" d="M28.21,26.4v-4.76H27.5c-0.93,0-1.7-0.97-1.7-2.16c0-0.59,0.19-1.14,0.5-1.53c0.31-0.39,0.74-0.63,1.2-0.63
		h-3.92c-0.46,0-0.89,0.24-1.2,0.63c-0.31,0.39-0.5,0.94-0.5,1.53c0,1.19,0.76,2.16,1.7,2.16h0.71v4.76H28.21z"/>
	<path class="st70" d="M29.77,2.59c-0.52-0.27-1.08-0.43-1.66-0.43c-2.78,0-5.04,3.39-5.04,7.57s2.26,7.57,5.04,7.57
		c0.58,0,1.14-0.16,1.66-0.43c-1.96-1.03-3.37-3.84-3.37-7.14S27.81,3.63,29.77,2.59z"/>
	<path class="st70" d="M10.48,47.47v-7.96c0-7.21,5.9-13.11,13.11-13.11h-5c-7.21,0-13.11,5.9-13.11,13.11v7.96
		c0,7.21,5.9,13.11,13.11,13.11h5C16.38,60.58,10.48,54.68,10.48,47.47z"/>
</g>
</svg>
